<svg id="Слой_1" data-name="Слой 1" xmlns="http://www.w3.org/2000/svg" viewBox="0 0 86.08 75.84"><defs><style>.cls-1{fill:none;stroke:#e9be00;stroke-miterlimit:10;stroke-width:3.69px;}.cls-2{fill:#e9be00;}</style></defs><path class="cls-1" d="M13.75,37.91V70.69A3.31,3.31,0,0,0,17.06,74H68.91a3.31,3.31,0,0,0,3.31-3.31V37.91"/><path class="cls-2" d="M51.45,34a8.39,8.39,0,0,1,5.78,2.6c2.13,2.13,2,5.29,1.71,7a18.36,18.36,0,0,1-5.26,9.63c-1.87,1.87-8.56,6.71-10.54,7.05h-.2c-2-.34-8.67-5.18-10.54-7.05a18.31,18.31,0,0,1-5.27-9.63c-.27-1.69-.42-4.85,1.71-7A8.81,8.81,0,0,1,34.9,34a8.13,8.13,0,0,1,5.35,2.13,4.31,4.31,0,0,0,5.46.13A9.38,9.38,0,0,1,51.45,34m0-3.69a12.94,12.94,0,0,0-8,3,.67.67,0,0,1-.38.13.63.63,0,0,1-.41-.15,11.72,11.72,0,0,0-7.75-3A12.44,12.44,0,0,0,26.24,34c-5,5-3.46,14.82,3.55,21.83C31.32,57.36,39.62,64,42.9,64h.27c3.28,0,11.58-6.59,13.11-8.12,7-7,8.6-16.78,3.56-21.83a12,12,0,0,0-8.39-3.68Z"/><path class="cls-2" d="M43,3.69a.28.28,0,0,1,.15,0L81.8,31.45a1.41,1.41,0,0,1,.32,2,1.42,1.42,0,0,1-2,.33l-35-25.1L43,7.11,40.89,8.65l-35,25.1a1.43,1.43,0,0,1-2-.33,1.4,1.4,0,0,1,.33-2L42.89,3.73a.24.24,0,0,1,.15,0M43,0a4,4,0,0,0-2.3.74L2.13,28.45a5.1,5.1,0,1,0,5.94,8.29L43,11.65,78,36.74a5.09,5.09,0,0,0,7.12-1.17h0A5.11,5.11,0,0,0,84,28.45L45.34.74A4,4,0,0,0,43,0Z"/><path class="cls-1" d="M72.22,20.56V8.91a2.06,2.06,0,0,0-2.06-2.06H62.85A2.05,2.05,0,0,0,60.8,8.91v3.88"/></svg>