<svg id="Слой_1" data-name="Слой 1" xmlns="http://www.w3.org/2000/svg" viewBox="0 0 83.58 73.69"><defs><style>.cls-1{fill:#e9be00;}</style></defs><path class="cls-1" d="M32.37,3.69c4.69,0,8.5,4.6,8.5,10.26s-3.81,10.26-8.5,10.26-8.5-4.6-8.5-10.26,3.82-10.26,8.5-10.26m0-3.69C25.64,0,20.19,6.24,20.19,14s5.45,13.94,12.18,13.94S44.55,21.65,44.55,14,39.1,0,32.37,0Z"/><path class="cls-1" d="M59.26,10.84h0a6.31,6.31,0,0,1,3.45,1,6.81,6.81,0,0,1,3,4.85,10.08,10.08,0,0,1-1.56,6.87,9.54,9.54,0,0,1-7.77,4.65,6.31,6.31,0,0,1-3.45-1C49.43,25,48.8,19.74,51.5,15.5a9.5,9.5,0,0,1,7.76-4.66m0-3.68a13.17,13.17,0,0,0-10.87,6.36c-3.8,6-2.66,13.49,2.55,16.8a10,10,0,0,0,5.43,1.56,13.23,13.23,0,0,0,10.88-6.36C71,19.55,69.9,12,64.69,8.71a10.08,10.08,0,0,0-5.43-1.55Z"/><path class="cls-1" d="M73.7,32.1h0a6,6,0,0,1,6.18,6.62A9,9,0,0,1,71.2,47,6,6,0,0,1,65,40.38,9,9,0,0,1,73.7,32.1m0-3.68A12.36,12.36,0,0,0,65,32.13c-4.58,4.58-5,11.62-.88,15.71a9.86,9.86,0,0,0,7,2.84A12.35,12.35,0,0,0,79.86,47c4.59-4.58,5-11.62.89-15.71a9.85,9.85,0,0,0-7-2.83Z"/><path class="cls-1" d="M10.08,20.27h0a8.3,8.3,0,0,1,6.86,4c2.36,3.77,1.61,8.5-1.67,10.55a6.17,6.17,0,0,1-3.34.94,8.3,8.3,0,0,1-6.87-4C2.7,28,3.45,23.27,6.73,21.21a6.27,6.27,0,0,1,3.35-.94m0-3.69a10,10,0,0,0-5.31,1.51c-5,3.14-6.28,10.13-2.83,15.62a11.94,11.94,0,0,0,10,5.78A9.94,9.94,0,0,0,17.23,38c5-3.14,6.28-10.13,2.84-15.62a12,12,0,0,0-10-5.78Z"/><path class="cls-1" d="M38.23,33.37v3.68h.09c3.72.15,9.49,5,14.37,12.09,5.43,7.89,7,14.32,6.4,16.18-1.07,3.16-2.16,4-5.85,4.61a6.25,6.25,0,0,1-.92.08c-1.14,0-2-.42-3.56-1.29a21.77,21.77,0,0,0-8.92-2.93c-.76-.07-1.52-.11-2.26-.11A24.76,24.76,0,0,0,28,67.76a12.64,12.64,0,0,1-4.41,1.16A6.34,6.34,0,0,1,22,68.69c-3.76-1-5.15-3.09-4.65-7,1.39-10.59,15.37-24.68,20.93-24.68V33.37m0,0C26.47,33.37.86,66.88,21,72.25a10.23,10.23,0,0,0,2.63.36c4.51,0,7.58-3.25,14-3.24a18.16,18.16,0,0,1,1.91.09c6.68.64,8.36,4.23,12.83,4.23a10.28,10.28,0,0,0,1.5-.12c4.87-.78,7.2-2.45,8.76-7.07,2.7-8-12.87-32.68-24.11-33.13Z"/></svg>